<svg width="565" height="490" viewBox="0 0 565 490" fill="none" xmlns="http://www.w3.org/2000/svg">
<g style="mix-blend-mode:overlay">
<mask id="path-1-inside-1_166_351" fill="white">
<path fill-rule="evenodd" clip-rule="evenodd" d="M304.188 67.4517C304.159 68.8508 304.144 70.2536 304.144 71.6599C304.144 76.9543 304.354 82.1996 304.768 87.3878L304.188 67.4517ZM308.52 171.218C308.52 183.438 309.642 195.396 311.79 206.994C310.538 195.092 309.451 182.747 308.524 169.939C308.521 170.365 308.52 170.791 308.52 171.218Z"/>
<path d="M282.737 4.33343e-05L282.5 0.000139092L282.579 7.17353e-05C282.632 1.50336e-05 282.684 -4.16681e-05 282.737 4.33343e-05Z"/>
<path fill-rule="evenodd" clip-rule="evenodd" d="M260.812 67.4517C260.841 68.8508 260.856 70.2536 260.856 71.6599C260.856 76.9543 260.646 82.1996 260.232 87.3878L260.812 67.4517ZM256.48 171.218C256.48 183.438 255.358 195.396 253.21 206.994C254.462 195.092 255.549 182.747 256.476 169.939C256.479 170.365 256.48 170.791 256.48 171.218Z"/>
<path d="M282.5 0.000139092C282.464 0.000168333 282.428 0.000123836 282.391 7.93444e-05C282.348 2.67664e-05 282.306 0.000356928 282.263 0.000426066L282.5 0.000139092Z"/>
<path d="M282.5 0.000139092L282.737 4.33343e-05C294.3 0.0187027 305.704 0.719852 316.909 2.06461C317.286 2.10985 317.663 2.15583 318.039 2.20252C324.666 3.02442 331.223 4.07169 337.703 5.33637C343.123 6.39426 348.488 7.60426 353.794 8.96179C355.293 9.3452 356.787 9.74036 358.276 10.1472C366.571 12.4133 374.716 15.0413 382.694 18.0131C428.733 35.1628 469.196 63.7627 500.623 100.35C532.784 137.794 555.48 183.602 565 234.066C545.019 241.188 523.498 245.066 501.071 245.066C458.781 245.066 419.711 231.275 388.114 207.946C393.57 220.114 399.658 231.936 406.337 243.372C423.988 273.599 445.764 301.123 470.891 325.174C486.474 340.09 503.347 353.67 521.326 365.729C522.754 366.688 524.19 367.637 525.633 368.576C534.561 374.387 543.752 379.828 553.185 384.875C543.175 412.791 528.972 438.71 511.336 461.874L511.201 462.05C511.033 462.27 510.865 462.49 510.697 462.71C502.523 457.796 494.553 452.579 486.802 447.073C430.279 409.979 384.314 358.117 354.394 296.973C347.625 283.14 341.677 268.833 336.614 254.113C324.219 218.08 317.127 179.581 316.267 139.547C316.208 136.8 316.178 134.046 316.178 131.285C316.178 126.105 316.283 120.948 316.489 115.818C316.649 111.859 316.869 107.916 317.15 103.989C319.064 77.2086 323.772 51.2014 330.983 26.2571C330.574 25.8195 312.083 23.7501 302.889 22.7701L304.188 67.4517C304.159 68.8508 304.144 70.2536 304.144 71.6599C304.144 76.9543 304.354 82.1996 304.768 87.3878L305.222 103.014C305.909 126.631 307.001 148.909 308.524 169.939C308.521 170.365 308.52 170.791 308.52 171.218C308.52 183.438 309.642 195.396 311.79 206.994C317.175 258.207 325.615 301.222 337.545 337.663C346.606 365.339 357.681 389.222 370.96 410.022C390.278 436.361 435.036 489.037 459.522 489.037H323.361L317.387 462.769C302.266 396.29 292.787 262.987 292.738 116.163L292.706 22.1309C289.321 21.9839 285.918 21.9013 282.5 21.8842C279.082 21.9013 275.679 21.9839 272.294 22.1309L272.262 116.163C272.213 262.987 262.734 396.29 247.613 462.769L241.639 489.037H105.477C129.964 489.037 174.722 436.361 194.04 410.022C207.319 389.222 218.393 365.339 227.454 337.663C239.385 301.222 247.825 258.207 253.21 206.994C255.358 195.396 256.48 183.438 256.48 171.218C256.48 170.791 256.479 170.365 256.476 169.939C257.998 148.909 259.091 126.631 259.778 103.014L260.232 87.3878C260.646 82.1996 260.856 76.9543 260.856 71.6599C260.856 70.2536 260.841 68.8508 260.812 67.4517L262.111 22.7701C252.917 23.7501 234.426 25.8195 234.017 26.2571C241.228 51.2014 245.936 77.2086 247.85 103.989C248.131 107.916 248.351 111.859 248.511 115.818C248.717 120.948 248.822 126.105 248.822 131.285C248.822 134.046 248.792 136.8 248.733 139.547C247.873 179.581 240.781 218.08 228.386 254.113C223.323 268.833 217.375 283.14 210.606 296.973C180.686 358.117 134.721 409.979 78.1978 447.073C70.4468 452.579 62.4767 457.796 54.3032 462.71C54.1347 462.49 53.9665 462.27 53.7987 462.05L53.664 461.874C36.0281 438.71 21.8253 412.791 11.8146 384.875C21.248 379.828 30.4394 374.387 39.367 368.576C40.8097 367.637 42.2456 366.688 43.6745 365.729C61.6527 353.67 78.5255 340.09 94.1091 325.174C119.236 301.123 141.012 273.599 158.663 243.372C165.342 231.936 171.43 220.114 176.886 207.946C145.289 231.275 106.219 245.066 63.9286 245.066C41.502 245.066 19.981 241.188 0 234.066C9.52009 183.602 32.2162 137.794 64.3774 100.35C95.8037 63.7627 136.267 35.1628 182.306 18.0131C190.284 15.0413 198.429 12.4133 206.724 10.1472C208.213 9.74036 209.707 9.3452 211.206 8.96179C216.512 7.60426 221.877 6.39426 227.297 5.33637C233.776 4.07169 240.334 3.02442 246.961 2.20252C247.337 2.15583 247.714 2.10985 248.091 2.06461C259.296 0.719852 270.699 0.0190855 282.263 0.000426066L282.5 0.000139092Z"/>
</mask>
<path fill-rule="evenodd" clip-rule="evenodd" d="M304.188 67.4517C304.159 68.8508 304.144 70.2536 304.144 71.6599C304.144 76.9543 304.354 82.1996 304.768 87.3878L304.188 67.4517ZM308.52 171.218C308.52 183.438 309.642 195.396 311.79 206.994C310.538 195.092 309.451 182.747 308.524 169.939C308.521 170.365 308.52 170.791 308.52 171.218Z" fill="white"/>
<path d="M282.737 4.33343e-05L282.5 0.000139092L282.579 7.17353e-05C282.632 1.50336e-05 282.684 -4.16681e-05 282.737 4.33343e-05Z" fill="white"/>
<path fill-rule="evenodd" clip-rule="evenodd" d="M260.812 67.4517C260.841 68.8508 260.856 70.2536 260.856 71.6599C260.856 76.9543 260.646 82.1996 260.232 87.3878L260.812 67.4517ZM256.48 171.218C256.48 183.438 255.358 195.396 253.21 206.994C254.462 195.092 255.549 182.747 256.476 169.939C256.479 170.365 256.48 170.791 256.48 171.218Z" fill="white"/>
<path d="M282.5 0.000139092C282.464 0.000168333 282.428 0.000123836 282.391 7.93444e-05C282.348 2.67664e-05 282.306 0.000356928 282.263 0.000426066L282.5 0.000139092Z" fill="white"/>
<path d="M282.5 0.000139092L282.737 4.33343e-05C294.3 0.0187027 305.704 0.719852 316.909 2.06461C317.286 2.10985 317.663 2.15583 318.039 2.20252C324.666 3.02442 331.223 4.07169 337.703 5.33637C343.123 6.39426 348.488 7.60426 353.794 8.96179C355.293 9.3452 356.787 9.74036 358.276 10.1472C366.571 12.4133 374.716 15.0413 382.694 18.0131C428.733 35.1628 469.196 63.7627 500.623 100.35C532.784 137.794 555.48 183.602 565 234.066C545.019 241.188 523.498 245.066 501.071 245.066C458.781 245.066 419.711 231.275 388.114 207.946C393.57 220.114 399.658 231.936 406.337 243.372C423.988 273.599 445.764 301.123 470.891 325.174C486.474 340.09 503.347 353.67 521.326 365.729C522.754 366.688 524.19 367.637 525.633 368.576C534.561 374.387 543.752 379.828 553.185 384.875C543.175 412.791 528.972 438.71 511.336 461.874L511.201 462.05C511.033 462.27 510.865 462.49 510.697 462.71C502.523 457.796 494.553 452.579 486.802 447.073C430.279 409.979 384.314 358.117 354.394 296.973C347.625 283.14 341.677 268.833 336.614 254.113C324.219 218.08 317.127 179.581 316.267 139.547C316.208 136.8 316.178 134.046 316.178 131.285C316.178 126.105 316.283 120.948 316.489 115.818C316.649 111.859 316.869 107.916 317.15 103.989C319.064 77.2086 323.772 51.2014 330.983 26.2571C330.574 25.8195 312.083 23.7501 302.889 22.7701L304.188 67.4517C304.159 68.8508 304.144 70.2536 304.144 71.6599C304.144 76.9543 304.354 82.1996 304.768 87.3878L305.222 103.014C305.909 126.631 307.001 148.909 308.524 169.939C308.521 170.365 308.52 170.791 308.52 171.218C308.52 183.438 309.642 195.396 311.79 206.994C317.175 258.207 325.615 301.222 337.545 337.663C346.606 365.339 357.681 389.222 370.96 410.022C390.278 436.361 435.036 489.037 459.522 489.037H323.361L317.387 462.769C302.266 396.29 292.787 262.987 292.738 116.163L292.706 22.1309C289.321 21.9839 285.918 21.9013 282.5 21.8842C279.082 21.9013 275.679 21.9839 272.294 22.1309L272.262 116.163C272.213 262.987 262.734 396.29 247.613 462.769L241.639 489.037H105.477C129.964 489.037 174.722 436.361 194.04 410.022C207.319 389.222 218.393 365.339 227.454 337.663C239.385 301.222 247.825 258.207 253.21 206.994C255.358 195.396 256.48 183.438 256.48 171.218C256.48 170.791 256.479 170.365 256.476 169.939C257.998 148.909 259.091 126.631 259.778 103.014L260.232 87.3878C260.646 82.1996 260.856 76.9543 260.856 71.6599C260.856 70.2536 260.841 68.8508 260.812 67.4517L262.111 22.7701C252.917 23.7501 234.426 25.8195 234.017 26.2571C241.228 51.2014 245.936 77.2086 247.85 103.989C248.131 107.916 248.351 111.859 248.511 115.818C248.717 120.948 248.822 126.105 248.822 131.285C248.822 134.046 248.792 136.8 248.733 139.547C247.873 179.581 240.781 218.08 228.386 254.113C223.323 268.833 217.375 283.14 210.606 296.973C180.686 358.117 134.721 409.979 78.1978 447.073C70.4468 452.579 62.4767 457.796 54.3032 462.71C54.1347 462.49 53.9665 462.27 53.7987 462.05L53.664 461.874C36.0281 438.71 21.8253 412.791 11.8146 384.875C21.248 379.828 30.4394 374.387 39.367 368.576C40.8097 367.637 42.2456 366.688 43.6745 365.729C61.6527 353.67 78.5255 340.09 94.1091 325.174C119.236 301.123 141.012 273.599 158.663 243.372C165.342 231.936 171.43 220.114 176.886 207.946C145.289 231.275 106.219 245.066 63.9286 245.066C41.502 245.066 19.981 241.188 0 234.066C9.52009 183.602 32.2162 137.794 64.3774 100.35C95.8037 63.7627 136.267 35.1628 182.306 18.0131C190.284 15.0413 198.429 12.4133 206.724 10.1472C208.213 9.74036 209.707 9.3452 211.206 8.96179C216.512 7.60426 221.877 6.39426 227.297 5.33637C233.776 4.07169 240.334 3.02442 246.961 2.20252C247.337 2.15583 247.714 2.10985 248.091 2.06461C259.296 0.719852 270.699 0.0190855 282.263 0.000426066L282.5 0.000139092Z" fill="white"/>
<path d="M282.737 4.33343e-05L282.754 -10.4999L282.743 -10.5L282.733 -10.5L282.737 4.33343e-05ZM282.5 0.000139092L282.496 -10.4999L282.487 -10.4999L282.5 0.000139092ZM282.263 0.000426066L282.25 -10.4996L282.246 -10.4996L282.263 0.000426066ZM304.188 67.4517L293.69 67.2298C293.659 68.7029 293.644 70.1797 293.644 71.6599H304.144H314.644C314.644 70.3275 314.658 68.9987 314.686 67.6736L304.188 67.4517ZM304.144 71.6599H293.644C293.644 77.233 293.865 82.7565 294.301 88.2219L304.768 87.3878L315.235 86.5536C314.843 81.6427 314.644 76.6757 314.644 71.6599H304.144ZM308.52 171.218H298.02C298.02 184.082 299.202 196.68 301.465 208.906L311.79 206.994L322.114 205.083C320.083 194.112 319.02 182.794 319.02 171.218H308.52ZM308.524 169.939L298.024 169.872C298.021 170.32 298.02 170.768 298.02 171.218H308.52H319.02C319.02 170.814 319.021 170.41 319.024 170.006L308.524 169.939ZM282.737 4.33343e-05L282.72 10.5C292.476 10.5158 302.111 11.0353 311.6 12.033L312.698 1.59057L313.796 -8.85187C303.59 -9.92488 293.234 -10.483 282.754 -10.4999L282.737 4.33343e-05ZM282.737 4.33343e-05L282.733 -10.5L282.496 -10.4999L282.5 0.000139092L282.504 10.5001L282.741 10.5L282.737 4.33343e-05ZM282.263 0.000426066L282.275 10.5004L282.513 10.5001L282.5 0.000139092L282.487 -10.4999L282.25 -10.4996L282.263 0.000426066ZM260.812 67.4517L250.314 67.6736C250.342 68.9988 250.356 70.3276 250.356 71.6599H260.856H271.356C271.356 70.1796 271.341 68.7028 271.31 67.2298L260.812 67.4517ZM260.856 71.6599H250.356C250.356 76.6757 250.157 81.6427 249.765 86.5536L260.232 87.3878L270.699 88.2219C271.135 82.7566 271.356 77.233 271.356 71.6599H260.856ZM256.48 171.218H245.98C245.98 182.794 244.917 194.112 242.886 205.083L253.21 206.994L263.535 208.906C265.798 196.68 266.98 184.082 266.98 171.218H256.48ZM256.476 169.939L245.976 170.006C245.979 170.41 245.98 170.814 245.98 171.218H256.48H266.98C266.98 170.768 266.979 170.32 266.976 169.872L256.476 169.939ZM282.263 0.000426066L282.246 -10.4996C272.421 -10.4837 262.705 -9.99257 253.119 -9.04702L254.15 1.40227L255.181 11.8516C264.094 10.9724 273.133 10.5152 282.28 10.5004L282.263 0.000426066ZM318.039 2.20252L307.945 -0.688578C307.909 -0.560383 307.872 -0.433886 307.837 -0.310074L317.937 2.5607L328.037 5.43148C328.07 5.31637 328.102 5.20416 328.133 5.09362L318.039 2.20252ZM525.633 376.33H536.133V368.576H525.633H515.133V376.33H525.633ZM246.961 2.20252L236.866 5.09362C236.898 5.20539 236.931 5.31791 236.963 5.43148L247.063 2.5607L257.163 -0.310074C257.127 -0.435432 257.091 -0.561612 257.055 -0.688578L246.961 2.20252ZM39.367 376.33L49.867 376.33L49.867 368.576L39.367 368.576L28.867 368.576L28.867 376.33L39.367 376.33ZM304.188 67.4517L325.179 66.8413V66.8413L304.188 67.4517ZM304.768 87.3878L283.777 87.9982V87.9982L304.768 87.3878ZM311.79 206.994L290.905 209.19L311.79 206.994ZM308.524 169.939L287.579 171.455V171.455L308.524 169.939ZM282.737 4.33343e-05L282.771 -20.9999L282.737 4.33343e-05ZM282.5 0.000139092L282.517 21.0001H282.518L282.5 0.000139092ZM282.579 7.17353e-05L282.597 21.0001L282.602 21.0001L282.579 7.17353e-05ZM282.263 0.000426066L282.297 21.0004L282.263 0.000426066ZM260.812 67.4517L239.821 66.8413V66.8413L260.812 67.4517ZM260.232 87.3878L281.223 87.9982V87.9982L260.232 87.3878ZM253.21 206.994L232.326 204.798L253.21 206.994ZM256.476 169.939L235.531 168.423L256.476 169.939ZM282.391 7.93444e-05L282.366 21.0001H282.366L282.391 7.93444e-05ZM316.909 2.06461L314.407 22.915L314.407 22.915L316.909 2.06461ZM318.039 2.20252L320.624 -18.6378L320.624 -18.6378L318.039 2.20252ZM337.703 5.33637L341.726 -15.2747L341.726 -15.2747L337.703 5.33637ZM353.794 8.96179L358.999 -11.383L358.999 -11.383L353.794 8.96179ZM358.276 10.1472L363.81 -10.1104L363.81 -10.1104L358.276 10.1472ZM382.694 18.0131L375.363 37.6921L382.694 18.0131ZM500.623 100.35L484.692 114.033L484.692 114.033L500.623 100.35ZM565 234.066L572.051 253.847L588.965 247.818L585.636 230.173L565 234.066ZM388.114 207.946L400.588 191.052L336.211 143.52L368.953 216.538L388.114 207.946ZM406.337 243.372L388.202 253.962L406.337 243.372ZM470.891 325.174L456.37 340.345L470.891 325.174ZM521.326 365.729L533.024 348.29L533.024 348.29L521.326 365.729ZM525.633 368.576L514.176 386.175V386.175L525.633 368.576ZM553.185 384.875L572.953 391.964L579.069 374.907L563.092 366.359L553.185 384.875ZM511.336 461.874L528.04 474.6L528.044 474.595L511.336 461.874ZM511.201 462.05L527.9 474.785L527.906 474.777L511.201 462.05ZM510.697 462.71L499.877 480.708L515.947 490.368L527.359 475.491L510.697 462.71ZM486.802 447.073L498.963 429.953L498.648 429.729L498.324 429.516L486.802 447.073ZM354.394 296.973L373.257 287.743L354.394 296.973ZM336.614 254.113L316.756 260.944H316.756L336.614 254.113ZM316.267 139.547L337.262 139.096V139.096L316.267 139.547ZM316.489 115.818L337.472 116.664V116.664L316.489 115.818ZM317.15 103.989L296.203 102.492V102.492L317.15 103.989ZM330.983 26.2571L351.157 32.0896L354.47 20.6296L346.323 11.9155L330.983 26.2571ZM302.889 22.7701L305.114 1.88842L281.199 -0.660621L281.898 23.3805L302.889 22.7701ZM305.222 103.014L284.231 103.625V103.625L305.222 103.014ZM337.545 337.663L317.588 344.197L337.545 337.663ZM370.96 410.022L353.259 421.322L353.624 421.895L354.026 422.442L370.96 410.022ZM323.361 489.037L302.883 493.694L306.6 510.037H323.361V489.037ZM317.387 462.769L337.864 458.112L337.864 458.111L317.387 462.769ZM292.738 116.163L313.738 116.156V116.156L292.738 116.163ZM292.706 22.1309L313.706 22.1238L313.7 2.02252L293.617 1.15064L292.706 22.1309ZM282.5 21.8842L282.605 0.88448L282.5 0.883958L282.395 0.88448L282.5 21.8842ZM272.294 22.1309L271.383 1.15064L251.3 2.02252L251.294 22.1238L272.294 22.1309ZM272.262 116.163L251.262 116.156V116.156L272.262 116.163ZM247.613 462.769L227.136 458.111L227.136 458.112L247.613 462.769ZM241.639 489.037V510.037H258.4L262.117 493.694L241.639 489.037ZM194.04 410.022L210.974 422.442L211.376 421.895L211.741 421.322L194.04 410.022ZM227.454 337.663L207.497 331.129L227.454 337.663ZM259.778 103.014L280.769 103.625V103.625L259.778 103.014ZM262.111 22.7701L283.102 23.3805L283.801 -0.660626L259.885 1.88842L262.111 22.7701ZM234.017 26.2571L218.677 11.9152L210.53 20.6293L213.843 32.0896L234.017 26.2571ZM247.85 103.989L226.903 105.486V105.486L247.85 103.989ZM248.511 115.818L227.528 116.664V116.664L248.511 115.818ZM248.733 139.547L227.738 139.096V139.096L248.733 139.547ZM228.386 254.113L208.528 247.282V247.282L228.386 254.113ZM210.606 296.973L191.743 287.743H191.743L210.606 296.973ZM78.1978 447.073L66.6758 429.516L66.3522 429.729L66.0368 429.953L78.1978 447.073ZM54.3032 462.71L37.6416 475.492L49.0539 490.368L65.1229 480.708L54.3032 462.71ZM53.7987 462.05L37.0946 474.777L37.0998 474.784L53.7987 462.05ZM53.664 461.874L36.9556 474.595L36.96 474.6L53.664 461.874ZM11.8146 384.875L1.90752 366.359L-14.0693 374.907L-7.95276 391.964L11.8146 384.875ZM39.367 368.576L50.8238 386.175L50.8238 386.175L39.367 368.576ZM43.6745 365.729L31.976 348.29L31.9759 348.29L43.6745 365.729ZM94.1091 325.174L108.63 340.345H108.63L94.1091 325.174ZM158.663 243.372L176.798 253.962L158.663 243.372ZM176.886 207.946L196.047 216.538L228.789 143.52L164.412 191.052L176.886 207.946ZM0 234.066L-20.636 230.173L-23.9648 247.818L-7.05087 253.847L0 234.066ZM64.3774 100.35L80.3077 114.033V114.033L64.3774 100.35ZM182.306 18.0131L189.637 37.6921L182.306 18.0131ZM206.724 10.1472L201.19 -10.1104L201.19 -10.1104L206.724 10.1472ZM211.206 8.96179L206.001 -11.383L206.001 -11.383L211.206 8.96179ZM227.297 5.33637L223.274 -15.2747L223.274 -15.2747L227.297 5.33637ZM246.961 2.20252L244.376 -18.6378L244.376 -18.6378L246.961 2.20252ZM248.091 2.06461L245.589 -18.7858L245.589 -18.7858L248.091 2.06461ZM304.768 87.3878L325.759 86.7774L325.179 66.8413L304.188 67.4517L283.197 68.0621L283.777 87.9982L304.768 87.3878ZM311.79 206.994L332.674 204.798C331.448 193.139 330.381 181.022 329.469 168.423L308.524 169.939L287.579 171.455C288.521 184.472 289.627 197.044 290.905 209.19L311.79 206.994ZM282.5 0.000139092L282.518 21.0001L282.597 21.0001L282.579 7.17353e-05L282.561 -20.9999L282.482 -20.9999L282.5 0.000139092ZM282.579 7.17353e-05L282.602 21.0001C282.659 21 282.684 21 282.703 21L282.737 4.33343e-05L282.771 -20.9999C282.685 -21.0001 282.604 -21 282.557 -20.9999L282.579 7.17353e-05ZM260.232 87.3878L281.223 87.9982L281.803 68.0621L260.812 67.4517L239.821 66.8413L239.241 86.7774L260.232 87.3878ZM253.21 206.994L274.095 209.19C275.373 197.044 276.479 184.472 277.421 171.455L256.476 169.939L235.531 168.423C234.619 181.022 233.552 193.139 232.326 204.798L253.21 206.994ZM282.5 0.000139092L282.483 -20.9999C282.472 -20.9998 282.457 -20.9999 282.417 -20.9999L282.391 7.93444e-05L282.366 21.0001C282.398 21.0001 282.456 21.0002 282.517 21.0001L282.5 0.000139092ZM282.391 7.93444e-05L282.417 -20.9999C282.338 -21 282.271 -20.9997 282.244 -20.9996C282.222 -20.9995 282.226 -20.9996 282.217 -20.9995C282.214 -20.9995 282.219 -20.9995 282.229 -20.9995L282.263 0.000426066L282.297 21.0004C282.328 21.0003 282.355 21.0003 282.373 21.0002C282.382 21.0002 282.391 21.0001 282.396 21.0001C282.403 21.0001 282.406 21.0001 282.41 21C282.417 21 282.414 21 282.407 21C282.401 21.0001 282.386 21.0001 282.366 21.0001L282.391 7.93444e-05ZM282.737 4.33343e-05L282.703 21C293.439 21.0173 304.018 21.6683 314.407 22.915L316.909 2.06461L319.411 -18.7858C307.389 -20.2286 295.162 -20.9799 282.771 -20.9999L282.737 4.33343e-05ZM316.909 2.06461L314.407 22.915C314.756 22.9569 315.105 22.9995 315.455 23.0429L318.039 2.20252L320.624 -18.6378C320.22 -18.6879 319.816 -18.7372 319.411 -18.7858L316.909 2.06461ZM318.039 2.20252L315.455 23.0429C321.598 23.8048 327.676 24.7755 333.68 25.9474L337.703 5.33637L341.726 -15.2747C334.771 -16.6321 327.734 -17.756 320.624 -18.6378L318.039 2.20252ZM337.703 5.33637L333.68 25.9474C338.702 26.9277 343.673 28.0488 348.589 29.3065L353.794 8.96179L358.999 -11.383C353.303 -12.8403 347.543 -14.1392 341.726 -15.2747L337.703 5.33637ZM353.794 8.96179L348.589 29.3065C349.978 29.6618 351.362 30.0279 352.741 30.4048L358.276 10.1472L363.81 -10.1104C362.212 -10.5472 360.608 -10.9714 358.999 -11.383L353.794 8.96179ZM358.276 10.1472L352.741 30.4048C360.426 32.5042 367.972 34.9388 375.363 37.6921L382.694 18.0131L390.024 -1.6659C381.46 -4.85626 372.715 -7.67756 363.81 -10.1104L358.276 10.1472ZM382.694 18.0131L375.363 37.6921C418.017 53.5809 455.539 80.0924 484.692 114.033L500.623 100.35L516.553 86.6673C482.853 47.433 439.448 16.7447 390.024 -1.6659L382.694 18.0131ZM500.623 100.35L484.692 114.033C514.521 148.761 535.546 191.215 544.364 237.959L565 234.066L585.636 230.173C575.414 175.99 551.047 126.826 516.553 86.6673L500.623 100.35ZM565 234.066L557.949 214.285C540.2 220.612 521.062 224.066 501.071 224.066V245.066V266.066C525.934 266.066 549.838 261.765 572.051 253.847L565 234.066ZM501.071 245.066V224.066C463.421 224.066 428.696 211.805 400.588 191.052L388.114 207.946L375.641 224.84C410.727 250.745 454.141 266.066 501.071 266.066V245.066ZM388.114 207.946L368.953 216.538C374.717 229.394 381.148 241.883 388.202 253.962L406.337 243.372L424.471 232.782C418.168 221.989 412.424 210.834 407.276 199.354L388.114 207.946ZM406.337 243.372L388.202 253.962C406.846 285.888 429.841 314.952 456.37 340.345L470.891 325.174L485.412 310.003C461.686 287.294 441.13 261.309 424.471 232.782L406.337 243.372ZM470.891 325.174L456.37 340.345C472.824 356.093 490.64 370.433 509.627 383.169L521.326 365.729L533.024 348.29C516.054 336.906 500.125 324.086 485.412 310.003L470.891 325.174ZM521.326 365.729L509.627 383.169C511.136 384.181 512.653 385.184 514.176 386.175L525.633 368.576L537.09 350.976C535.728 350.09 534.372 349.194 533.024 348.29L521.326 365.729ZM525.633 368.576L514.176 386.175C523.605 392.313 533.313 398.06 543.278 403.391L553.185 384.875L563.092 366.359C554.191 361.596 545.516 356.462 537.09 350.976L525.633 368.576ZM553.185 384.875L533.418 377.786C524.144 403.648 510.982 427.672 494.628 449.152L511.336 461.874L528.044 474.595C546.962 449.748 562.205 421.934 572.953 391.964L553.185 384.875ZM511.336 461.874L494.632 449.147L494.497 449.323L511.201 462.05L527.906 474.777L528.04 474.6L511.336 461.874ZM511.201 462.05L494.503 449.316C494.347 449.52 494.191 449.724 494.035 449.928L510.697 462.71L527.359 475.491C527.54 475.256 527.72 475.021 527.9 474.785L511.201 462.05ZM510.697 462.71L521.517 444.712C513.802 440.074 506.28 435.15 498.963 429.953L486.802 447.073L474.641 464.194C482.827 470.008 491.244 475.518 499.877 480.708L510.697 462.71ZM486.802 447.073L498.324 429.516C444.928 394.474 401.51 345.48 373.257 287.743L354.394 296.973L335.531 306.204C367.119 370.754 415.629 425.483 475.28 464.63L486.802 447.073ZM354.394 296.973L373.257 287.743C366.866 274.683 361.251 261.176 356.472 247.282L336.614 254.113L316.756 260.944C322.103 276.489 328.384 291.598 335.531 306.204L354.394 296.973ZM336.614 254.113L356.472 247.282C344.775 213.278 338.074 176.929 337.262 139.096L316.267 139.547L295.272 139.998C296.179 182.233 303.664 222.883 316.756 260.944L336.614 254.113ZM316.267 139.547L337.262 139.096C337.206 136.5 337.178 133.896 337.178 131.285H316.178H295.178C295.178 134.197 295.209 137.101 295.272 139.998L316.267 139.547ZM316.178 131.285H337.178C337.178 126.387 337.277 121.512 337.472 116.664L316.489 115.818L295.506 114.973C295.288 120.384 295.178 125.822 295.178 131.285H316.178ZM316.489 115.818L337.472 116.664C337.623 112.922 337.831 109.196 338.097 105.486L317.15 103.989L296.203 102.492C295.907 106.635 295.675 110.796 295.506 114.973L316.489 115.818ZM317.15 103.989L338.097 105.486C339.905 80.187 344.351 55.6325 351.157 32.0896L330.983 26.2571L310.809 20.4246C303.193 46.7703 298.223 74.2302 296.203 102.492L317.15 103.989ZM330.983 26.2571L346.323 11.9155C343.767 9.1811 341.111 7.84005 340.407 7.48501C339.321 6.93693 338.407 6.59491 337.918 6.42138C336.92 6.06701 336.09 5.85611 335.722 5.76563C334.901 5.56345 334.154 5.42484 333.724 5.34813C332.767 5.17758 331.666 5.0139 330.625 4.86824C328.474 4.5671 325.667 4.21661 322.718 3.86478C316.776 3.15614 309.761 2.38362 305.114 1.88842L302.889 22.7701L300.663 43.6519C305.211 44.1366 312.039 44.8888 317.743 45.5692C320.617 45.9119 323.084 46.2221 324.802 46.4626C325.697 46.5878 326.179 46.6653 326.348 46.6955C326.481 46.7191 326.181 46.6708 325.68 46.5475C325.473 46.4965 324.771 46.3221 323.867 46.0013C323.426 45.8446 322.551 45.5186 321.495 44.9857C320.951 44.7118 320.167 44.2865 319.27 43.685C318.427 43.1193 317.065 42.1195 315.643 40.5987L330.983 26.2571ZM302.889 22.7701L281.898 23.3805L283.197 68.0621L304.188 67.4517L325.179 66.8413L323.88 22.1597L302.889 22.7701ZM304.768 87.3878L283.777 87.9982L284.231 103.625L305.222 103.014L326.213 102.404L325.759 86.7774L304.768 87.3878ZM305.222 103.014L284.231 103.625C284.925 127.502 286.032 150.085 287.579 171.455L308.524 169.939L329.469 168.423C327.971 147.734 326.893 125.76 326.213 102.404L305.222 103.014ZM311.79 206.994L290.905 209.19C296.394 261.39 305.065 305.947 317.588 344.197L337.545 337.663L357.503 331.129C346.165 296.498 337.956 255.024 332.674 204.798L311.79 206.994ZM337.545 337.663L317.588 344.197C327.113 373.292 338.895 398.821 353.259 421.322L370.96 410.022L388.66 398.722C376.467 379.622 366.1 357.386 357.503 331.129L337.545 337.663ZM370.96 410.022L354.026 422.442C364.145 436.239 380.883 456.9 398.545 474.347C407.349 483.043 416.886 491.444 426.338 497.811C435.055 503.684 446.857 510.037 459.522 510.037V489.037V468.037C459.945 468.037 456.97 467.806 449.804 462.978C443.373 458.646 435.921 452.231 428.061 444.466C412.393 428.99 397.092 410.144 387.893 397.602L370.96 410.022ZM459.522 489.037V468.037H323.361V489.037V510.037H459.522V489.037ZM323.361 489.037L343.838 484.381L337.864 458.112L317.387 462.769L296.91 467.425L302.883 493.694L323.361 489.037ZM317.387 462.769L337.864 458.111C323.299 394.079 313.787 262.782 313.738 116.156L292.738 116.163L271.738 116.17C271.787 263.193 281.232 398.502 296.91 467.427L317.387 462.769ZM292.738 116.163L313.738 116.156L313.706 22.1238L292.706 22.1309L271.706 22.1379L271.738 116.171L292.738 116.163ZM292.706 22.1309L293.617 1.15064C289.963 0.991986 286.292 0.902861 282.605 0.88448L282.5 21.8842L282.395 42.884C285.544 42.8997 288.678 42.9758 291.796 43.1111L292.706 22.1309ZM282.5 21.8842L282.395 0.88448C278.708 0.902861 275.037 0.991985 271.383 1.15064L272.294 22.1309L273.204 43.1111C276.322 42.9758 279.456 42.8997 282.605 42.884L282.5 21.8842ZM272.294 22.1309L251.294 22.1238L251.262 116.156L272.262 116.163L293.262 116.171L293.294 22.1379L272.294 22.1309ZM272.262 116.163L251.262 116.156C251.213 262.782 241.701 394.079 227.136 458.111L247.613 462.769L268.09 467.427C283.768 398.502 293.213 263.193 293.262 116.17L272.262 116.163ZM247.613 462.769L227.136 458.112L221.162 484.381L241.639 489.037L262.117 493.694L268.09 467.425L247.613 462.769ZM241.639 489.037V468.037H105.477V489.037V510.037H241.639V489.037ZM105.477 489.037V510.037C118.143 510.037 129.945 503.684 138.662 497.811C148.114 491.444 157.651 483.043 166.455 474.347C184.117 456.9 200.855 436.239 210.974 422.442L194.04 410.022L177.107 397.602C167.908 410.144 152.607 428.99 136.939 444.466C129.079 452.231 121.627 458.646 115.196 462.978C108.03 467.806 105.055 468.037 105.477 468.037V489.037ZM194.04 410.022L211.741 421.322C226.105 398.821 237.887 373.292 247.412 344.197L227.454 337.663L207.497 331.129C198.9 357.386 188.533 379.622 176.34 398.722L194.04 410.022ZM227.454 337.663L247.412 344.197C259.935 305.947 268.606 261.39 274.095 209.19L253.21 206.994L232.326 204.798C227.044 255.024 218.835 296.498 207.497 331.129L227.454 337.663ZM256.476 169.939L277.421 171.455C278.968 150.085 280.075 127.502 280.769 103.625L259.778 103.014L238.787 102.404C238.107 125.76 237.029 147.734 235.531 168.423L256.476 169.939ZM259.778 103.014L280.769 103.625L281.223 87.9982L260.232 87.3878L239.241 86.7774L238.787 102.404L259.778 103.014ZM260.812 67.4517L281.803 68.0621L283.102 23.3805L262.111 22.7701L241.12 22.1597L239.821 66.8413L260.812 67.4517ZM262.111 22.7701L259.885 1.88842C255.239 2.38362 248.224 3.15614 242.282 3.86478C239.333 4.21661 236.526 4.5671 234.375 4.86824C233.334 5.0139 232.233 5.17758 231.276 5.34813C230.846 5.42484 230.099 5.56345 229.278 5.76562C228.91 5.8561 228.08 6.06699 227.082 6.42135C226.593 6.59488 225.679 6.93689 224.593 7.48495C223.889 7.83998 221.233 9.18095 218.677 11.9152L234.017 26.2571L249.357 40.599C247.935 42.1197 246.573 43.1195 245.73 43.6852C244.833 44.2866 244.048 44.7119 243.505 44.9858C242.449 45.5186 241.574 45.8446 241.133 46.0013C240.229 46.3221 239.527 46.4965 239.32 46.5475C238.819 46.6708 238.519 46.7191 238.652 46.6955C238.821 46.6653 239.303 46.5878 240.198 46.4626C241.916 46.2221 244.383 45.9119 247.257 45.5692C252.961 44.8888 259.789 44.1366 264.337 43.6519L262.111 22.7701ZM234.017 26.2571L213.843 32.0896C220.649 55.6325 225.095 80.187 226.903 105.486L247.85 103.989L268.797 102.492C266.777 74.2302 261.807 46.7703 254.19 20.4246L234.017 26.2571ZM247.85 103.989L226.903 105.486C227.169 109.196 227.377 112.922 227.528 116.664L248.511 115.818L269.494 114.973C269.325 110.796 269.093 106.635 268.797 102.492L247.85 103.989ZM248.511 115.818L227.528 116.664C227.723 121.512 227.822 126.387 227.822 131.285H248.822H269.822C269.822 125.823 269.712 120.384 269.494 114.973L248.511 115.818ZM248.822 131.285H227.822C227.822 133.896 227.794 136.5 227.738 139.096L248.733 139.547L269.728 139.998C269.791 137.101 269.822 134.197 269.822 131.285H248.822ZM248.733 139.547L227.738 139.096C226.926 176.929 220.225 213.278 208.528 247.282L228.386 254.113L248.244 260.944C261.336 222.883 268.821 182.233 269.728 139.998L248.733 139.547ZM228.386 254.113L208.528 247.282C203.749 261.176 198.134 274.683 191.743 287.743L210.606 296.973L229.469 306.204C236.616 291.598 242.897 276.489 248.244 260.944L228.386 254.113ZM210.606 296.973L191.743 287.743C163.49 345.48 120.072 394.474 66.6758 429.516L78.1978 447.073L89.7197 464.63C149.371 425.483 197.881 370.754 229.469 306.204L210.606 296.973ZM78.1978 447.073L66.0368 429.953C58.7202 435.15 51.1975 440.074 43.4834 444.712L54.3032 462.71L65.1229 480.708C73.7559 475.518 82.1733 470.008 90.3587 464.194L78.1978 447.073ZM54.3032 462.71L70.9648 449.927C70.8086 449.724 70.6528 449.52 70.4975 449.316L53.7987 462.05L37.0998 474.784C37.2802 475.021 37.4608 475.257 37.6416 475.492L54.3032 462.71ZM53.7987 462.05L70.5027 449.323L70.368 449.147L53.664 461.874L36.96 474.6L37.0946 474.777L53.7987 462.05ZM53.664 461.874L70.3724 449.152C54.0179 427.672 40.856 403.648 31.5821 377.786L11.8146 384.875L-7.95276 391.964C2.79466 421.934 18.0382 449.748 36.9556 474.595L53.664 461.874ZM11.8146 384.875L21.7218 403.391C31.6866 398.06 41.395 392.313 50.8238 386.175L39.367 368.576L27.9102 350.976C19.4838 356.462 10.8093 361.596 1.90752 366.359L11.8146 384.875ZM39.367 368.576L50.8238 386.175C52.3474 385.183 53.8639 384.181 55.3731 383.169L43.6745 365.729L31.9759 348.29C30.6273 349.194 29.272 350.09 27.9102 350.976L39.367 368.576ZM43.6745 365.729L55.373 383.169C74.3595 370.433 92.1761 356.093 108.63 340.345L94.1091 325.174L79.5884 310.003C64.875 324.086 48.9458 336.906 31.976 348.29L43.6745 365.729ZM94.1091 325.174L108.63 340.345C135.159 314.952 158.154 285.888 176.798 253.962L158.663 243.372L140.529 232.782C123.87 261.309 103.314 287.294 79.5884 310.003L94.1091 325.174ZM158.663 243.372L176.798 253.962C183.852 241.883 190.283 229.394 196.047 216.538L176.886 207.946L157.724 199.354C152.576 210.834 146.832 221.989 140.529 232.782L158.663 243.372ZM176.886 207.946L164.412 191.052C136.304 211.805 101.579 224.066 63.9286 224.066V245.066V266.066C110.859 266.066 154.273 250.745 189.359 224.84L176.886 207.946ZM63.9286 245.066V224.066C43.9379 224.066 24.8001 220.612 7.05087 214.285L0 234.066L-7.05087 253.847C15.162 261.765 39.0661 266.066 63.9286 266.066V245.066ZM0 234.066L20.636 237.959C29.4544 191.215 50.4793 148.761 80.3077 114.033L64.3774 100.35L48.4471 86.6673C13.9531 126.826 -10.4142 175.99 -20.636 230.173L0 234.066ZM64.3774 100.35L80.3077 114.033C109.461 80.0924 146.983 53.5809 189.637 37.6921L182.306 18.0131L174.976 -1.6659C125.552 16.7447 82.1467 47.433 48.4471 86.6673L64.3774 100.35ZM182.306 18.0131L189.637 37.6921C197.028 34.9388 204.574 32.5042 212.259 30.4048L206.724 10.1472L201.19 -10.1104C192.285 -7.67756 183.54 -4.85626 174.976 -1.6659L182.306 18.0131ZM206.724 10.1472L212.258 30.4048C213.638 30.0279 215.022 29.6618 216.411 29.3065L211.206 8.96179L206.001 -11.383C204.392 -10.9714 202.788 -10.5472 201.19 -10.1104L206.724 10.1472ZM211.206 8.96179L216.411 29.3065C221.327 28.0488 226.298 26.9277 231.32 25.9474L227.297 5.33637L223.274 -15.2747C217.457 -14.1392 211.697 -12.8403 206.001 -11.383L211.206 8.96179ZM227.297 5.33637L231.32 25.9474C237.324 24.7755 243.402 23.8048 249.545 23.0429L246.961 2.20252L244.376 -18.6378C237.266 -17.756 230.229 -16.6321 223.274 -15.2747L227.297 5.33637ZM246.961 2.20252L249.545 23.0429C249.894 22.9996 250.244 22.9569 250.593 22.915L248.091 2.06461L245.589 -18.7858C245.184 -18.7372 244.78 -18.6879 244.376 -18.6378L246.961 2.20252ZM248.091 2.06461L250.593 22.915C260.981 21.6683 271.56 21.0177 282.297 21.0004L282.263 0.000426066L282.229 -20.9995C269.839 -20.9796 257.611 -20.2286 245.589 -18.7858L248.091 2.06461Z" fill="white" mask="url(#path-1-inside-1_166_351)"/>
</g>
</svg>
