<svg width="224" height="52" viewBox="0 0 224 52" fill="none" xmlns="http://www.w3.org/2000/svg">
<path fill-rule="evenodd" clip-rule="evenodd" d="M32.0504 7.10697C32.0473 7.25439 32.0458 7.40219 32.0458 7.55036C32.0458 8.10821 32.068 8.66087 32.1115 9.20752L32.0504 7.10697ZM32.5068 18.0402C32.5068 19.3277 32.6251 20.5877 32.8514 21.8097C32.7195 20.5556 32.605 19.2549 32.5073 17.9054C32.507 17.9503 32.5068 17.9952 32.5068 18.0402Z" fill="white"/>
<path d="M29.7903 4.56587e-06L29.7653 1.46553e-05L29.7736 7.55831e-06C29.7792 1.584e-06 29.7847 -4.39031e-06 29.7903 4.56587e-06Z" fill="white"/>
<path fill-rule="evenodd" clip-rule="evenodd" d="M27.4802 7.10697C27.4833 7.25439 27.4848 7.40219 27.4848 7.55036C27.4848 8.10821 27.4626 8.66087 27.4191 9.20752L27.4802 7.10697ZM27.0237 18.0402C27.0237 19.3277 26.9055 20.5877 26.6792 21.8097C26.8111 20.5556 26.9256 19.2549 27.0233 17.9054C27.0236 17.9503 27.0237 17.9952 27.0237 18.0402Z" fill="white"/>
<path d="M29.7653 1.46553e-05C29.7615 1.77363e-05 29.7577 1.30479e-05 29.7538 8.36003e-06C29.7493 2.82021e-06 29.7448 3.76073e-05 29.7403 4.4892e-05L29.7653 1.46553e-05Z" fill="white"/>
<path d="M29.7653 1.46553e-05L29.7903 4.56587e-06C31.0086 0.00197059 32.2101 0.0758464 33.3908 0.217536C33.4305 0.222302 33.4702 0.227146 33.5099 0.232066C34.2081 0.318665 34.899 0.429009 35.5817 0.562261C36.1527 0.673724 36.718 0.801214 37.2771 0.944249C37.435 0.984646 37.5924 1.02628 37.7493 1.06915C38.6233 1.30792 39.4815 1.58481 40.3221 1.89793C45.1729 3.70489 49.4363 6.71828 52.7475 10.5733C56.1362 14.5185 58.5275 19.3451 59.5306 24.6621C57.4253 25.4125 55.1578 25.8211 52.7948 25.8211C48.3389 25.8211 44.2224 24.3681 40.8932 21.91C41.4681 23.192 42.1096 24.4377 42.8132 25.6426C44.6731 28.8274 46.9674 31.7275 49.6149 34.2616C51.2568 35.8332 53.0346 37.264 54.9289 38.5347C55.0794 38.6356 55.2307 38.7356 55.3827 38.8346C56.3234 39.4469 57.2918 40.0201 58.2858 40.5519C57.231 43.4932 55.7345 46.2242 53.8763 48.6648L53.8622 48.6834C53.8445 48.7066 53.8267 48.7298 53.809 48.7529C52.9478 48.2352 52.108 47.6855 51.2914 47.1054C45.3358 43.1969 40.4928 37.7326 37.3403 31.2903C36.6271 29.8328 36.0004 28.3252 35.4669 26.7743C34.161 22.9778 33.4137 18.9214 33.3231 14.7032C33.3169 14.4138 33.3138 14.1236 33.3138 13.8327C33.3138 13.2869 33.3248 12.7436 33.3465 12.2031C33.3633 11.7859 33.3866 11.3704 33.4162 10.9567C33.6178 8.135 34.1138 5.39478 34.8737 2.76655C34.8306 2.72044 32.8823 2.5024 31.9135 2.39915L32.0504 7.10697C32.0473 7.25439 32.0458 7.40219 32.0458 7.55036C32.0458 8.10821 32.068 8.66087 32.1115 9.20752L32.1594 10.854C32.2318 13.3423 32.3469 15.6896 32.5073 17.9054C32.507 17.9503 32.5068 17.9952 32.5068 18.0402C32.5068 19.3277 32.6251 20.5877 32.8514 21.8097C33.4188 27.2057 34.3081 31.738 35.5651 35.5774C36.5198 38.4935 37.6866 41.0099 39.0857 43.2015C41.1212 45.9766 45.8371 51.5269 48.4171 51.5269H34.0705L33.4411 48.7591C31.8479 41.7547 30.8492 27.7094 30.844 12.2394L30.8407 2.33179C30.4839 2.31631 30.1254 2.3076 29.7653 2.30581C29.4052 2.3076 29.0467 2.31631 28.6899 2.33179L28.6866 12.2394C28.6814 27.7094 27.6827 41.7547 26.0895 48.7591L25.4601 51.5269H11.1135C13.6935 51.5269 18.4094 45.9766 20.4448 43.2015C21.844 41.0099 23.0108 38.4935 23.9655 35.5774C25.2225 31.738 26.1118 27.2057 26.6792 21.8097C26.9055 20.5877 27.0237 19.3277 27.0237 18.0402C27.0237 17.9952 27.0236 17.9503 27.0233 17.9054C27.1837 15.6896 27.2988 13.3423 27.3712 10.854L27.4191 9.20752C27.4626 8.66087 27.4848 8.10821 27.4848 7.55036C27.4848 7.40219 27.4833 7.25439 27.4802 7.10697L27.617 2.39915C26.6483 2.5024 24.7 2.72044 24.6569 2.76655C25.4168 5.39478 25.9128 8.135 26.1144 10.9567C26.144 11.3704 26.1672 11.7859 26.1841 12.2031C26.2058 12.7436 26.2168 13.2869 26.2168 13.8327C26.2168 14.1236 26.2137 14.4138 26.2075 14.7032C26.1169 18.9214 25.3696 22.9778 24.0636 26.7743C23.5302 28.3252 22.9035 29.8328 22.1903 31.2903C19.0378 37.7326 14.1948 43.1969 8.23922 47.1054C7.42254 47.6855 6.58279 48.2352 5.72159 48.7529C5.70384 48.7298 5.68612 48.7066 5.66844 48.6834L5.65425 48.6648C3.79606 46.2242 2.2996 43.4932 1.24484 40.5519C2.23877 40.0201 3.20721 39.4469 4.14786 38.8346C4.29987 38.7356 4.45116 38.6356 4.60171 38.5347C6.49596 37.264 8.27375 35.8332 9.9157 34.2616C12.5632 31.7275 14.8575 28.8274 16.7174 25.6426C17.421 24.4377 18.0625 23.192 18.6374 21.91C15.3082 24.3681 11.1917 25.8211 6.73576 25.8211C4.37281 25.8211 2.10528 25.4125 0 24.6621C1.00307 19.3451 3.39442 14.5185 6.78305 10.5733C10.0942 6.71828 14.3577 3.70489 19.2085 1.89793C20.0491 1.58481 20.9073 1.30792 21.7813 1.06915C21.9382 1.02628 22.0956 0.984646 22.2535 0.944249C22.8125 0.801214 23.3779 0.673724 23.9489 0.562261C24.6316 0.429009 25.3225 0.318665 26.0207 0.232066C26.0604 0.227146 26.1001 0.222302 26.1398 0.217536C27.3204 0.0758464 28.5219 0.00201092 29.7403 4.4892e-05L29.7653 1.46553e-05Z" fill="white"/>
<path d="M193.194 34.3399C193.194 31.5195 194.455 29.4447 196.976 28.1155C199.498 26.7864 202.985 26.1218 207.439 26.1218H209.419C209.466 25.6031 209.49 25.2465 209.49 25.052C209.49 23.7229 209.219 22.6855 208.677 21.9399C208.135 21.1618 207.463 20.7728 206.662 20.7728C206.096 20.7728 205.531 20.9997 204.965 21.4536C204.399 21.875 203.916 22.5234 203.516 23.3987H196.905C197.683 20.5459 198.92 18.6332 200.617 17.6607C202.314 16.6557 204.399 16.1532 206.874 16.1532C210.362 16.1532 212.836 17.1906 214.297 19.2654C215.758 21.3077 216.489 24.4685 216.489 28.7477V41.4881H209.984V34.7289C209.136 37.063 207.875 38.8298 206.202 40.0293C204.529 41.2287 202.75 41.8285 200.865 41.8285C199.498 41.8285 198.225 41.5367 197.047 40.9532C195.892 40.3696 194.961 39.5106 194.254 38.3759C193.547 37.2413 193.194 35.8959 193.194 34.3399ZM208.394 31.5195C207.734 31.487 206.815 31.4708 205.637 31.4708C203.61 31.4708 202.114 31.6491 201.147 32.0057C200.181 32.3623 199.698 33.0107 199.698 33.9508C199.698 34.7289 200.016 35.361 200.652 35.8473C201.289 36.3336 202.078 36.5767 203.021 36.5767C204.27 36.5767 205.495 36.1715 206.697 35.361C207.899 34.5182 208.865 33.2538 209.596 31.5681L208.394 31.5195Z" fill="white"/>
<path d="M136.646 41.2587C134.08 41.2587 131.91 40.8219 130.135 39.9483C128.388 39.0474 127.064 37.6824 126.163 35.8532C125.262 34.0241 124.812 31.7035 124.812 28.8916C124.812 26.0524 125.262 23.7318 126.163 21.93C127.064 20.1009 128.388 18.7495 130.135 17.8759C131.91 16.9749 134.08 16.5245 136.646 16.5245C139.185 16.5245 141.329 16.9749 143.076 17.8759C144.85 18.7495 146.188 20.1009 147.089 21.93C148.017 23.7591 148.481 26.0797 148.481 28.8916C148.481 31.7035 148.017 34.0241 147.089 35.8532C146.188 37.6824 144.85 39.0474 143.076 39.9483C141.329 40.8219 139.185 41.2587 136.646 41.2587ZM136.646 37.737C138.121 37.737 139.363 37.4503 140.373 36.877C141.41 36.2764 142.188 35.3209 142.707 34.0104C143.253 32.7 143.526 30.9937 143.526 28.8916C143.526 26.7622 143.253 25.0559 142.707 23.7728C142.188 22.4623 141.41 21.5205 140.373 20.9472C139.363 20.3466 138.121 20.0463 136.646 20.0463C135.172 20.0463 133.916 20.3466 132.879 20.9472C131.869 21.5205 131.091 22.4623 130.545 23.7728C129.999 25.0559 129.726 26.7622 129.726 28.8916C129.726 30.9937 129.999 32.7 130.545 34.0104C131.091 35.3209 131.869 36.2764 132.879 36.877C133.916 37.4503 135.172 37.737 136.646 37.737Z" fill="white"/>
<path d="M110.932 41.2587C108.366 41.2587 106.196 40.8219 104.421 39.9483C102.674 39.0474 101.35 37.6824 100.449 35.8532C99.548 34.0241 99.0976 31.7035 99.0976 28.8916C99.0976 26.0524 99.548 23.7318 100.449 21.93C101.35 20.1009 102.674 18.7495 104.421 17.8759C106.196 16.9749 108.366 16.5245 110.932 16.5245C113.471 16.5245 115.614 16.9749 117.362 17.8759C119.136 18.7495 120.474 20.1009 121.375 21.93C122.303 23.7591 122.767 26.0797 122.767 28.8916C122.767 31.7035 122.303 34.0241 121.375 35.8532C120.474 37.6824 119.136 39.0474 117.362 39.9483C115.614 40.8219 113.471 41.2587 110.932 41.2587ZM110.932 37.737C112.407 37.737 113.649 37.4503 114.659 36.877C115.696 36.2764 116.474 35.3209 116.993 34.0104C117.539 32.7 117.812 30.9937 117.812 28.8916C117.812 26.7622 117.539 25.0559 116.993 23.7728C116.474 22.4623 115.696 21.5205 114.659 20.9472C113.649 20.3466 112.407 20.0463 110.932 20.0463C109.458 20.0463 108.202 20.3466 107.165 20.9472C106.155 21.5205 105.377 22.4623 104.831 23.7728C104.285 25.0559 104.012 26.7622 104.012 28.8916C104.012 30.9937 104.285 32.7 104.831 34.0104C105.377 35.3209 106.155 36.2764 107.165 36.877C108.202 37.4503 109.458 37.737 110.932 37.737Z" fill="white"/>
<path d="M73.2855 12.1428H86.7583C88.6693 12.1428 90.2937 12.3748 91.6314 12.8389C92.9965 13.303 94.0475 14.0538 94.7847 15.0912C95.5218 16.1286 95.8903 17.5073 95.8903 19.2272C95.8903 21.4659 95.2897 23.2131 94.0885 24.4689C92.8873 25.6974 91.2629 26.339 89.2154 26.3936V26.3527C90.7715 26.3527 92.1092 26.5847 93.2285 27.0488C94.3751 27.5129 95.2624 28.2364 95.8903 29.2192C96.5182 30.1747 96.8322 31.4305 96.8322 32.9867C96.8322 34.6793 96.4636 36.1126 95.7265 37.2865C94.9894 38.4331 93.8837 39.3067 92.4095 39.9073C90.9353 40.5079 89.1062 40.8083 86.9221 40.8083H73.2855V12.1428ZM76.9301 36.9589H86.0622C88.0005 36.9589 89.4065 36.6176 90.2801 35.9351C91.181 35.2526 91.6314 34.106 91.6314 32.4953C91.6314 31.021 91.181 29.9563 90.2801 29.3011C89.3792 28.6186 87.9868 28.2773 86.1031 28.2773H77.2168V24.5099H85.6526C87.3453 24.5099 88.6147 24.1413 89.4611 23.4042C90.3074 22.6398 90.7305 21.4795 90.7305 19.9234C90.7305 18.4765 90.3347 17.4527 89.543 16.8521C88.7513 16.2515 87.4681 15.9512 85.6936 15.9512H76.9301L78.3225 14.1494V38.8017L76.9301 36.9589Z" fill="white"/>
<path d="M148.481 28.8916C148.481 26.0797 148.017 23.7591 147.089 21.93C146.188 20.1009 144.85 18.7495 143.076 17.8759C141.383 17.0031 139.319 16.5531 136.883 16.5258L136.646 16.5245C134.08 16.5245 131.91 16.9749 130.135 17.8759L129.973 17.9592C128.306 18.8344 127.036 20.158 126.163 21.93C125.262 23.7318 124.812 26.0524 124.812 28.8916L124.813 29.1537C124.84 31.8481 125.29 34.0812 126.163 35.8532C127.064 37.6824 128.388 39.0474 130.135 39.9483C131.854 40.7946 133.945 41.231 136.407 41.2574L136.646 41.2587C139.106 41.2587 141.194 40.8488 142.911 40.029L143.076 39.9483C144.85 39.0474 146.188 37.6824 147.089 35.8532C147.988 34.0812 148.452 31.8481 148.48 29.1537L148.481 28.8916ZM143.016 28.8915C143.016 26.7982 142.747 25.1681 142.238 23.9725L142.235 23.9665L142.233 23.9605C141.749 22.7384 141.041 21.8993 140.126 21.3936L140.119 21.3898L140.112 21.3856C139.199 20.8424 138.052 20.5564 136.647 20.5564C135.242 20.5564 134.078 20.8422 133.135 21.3886L133.133 21.3898L133.131 21.3908C132.239 21.8966 131.528 22.7393 131.016 23.969L131.015 23.9707L131.014 23.9725C130.505 25.1681 130.236 26.7982 130.236 28.8915C130.236 30.9558 130.505 32.5884 131.016 33.8142L131.064 33.9285C131.572 35.0956 132.267 35.9174 133.134 36.4347C134.078 36.9545 135.242 37.2269 136.647 37.2269L136.646 37.737L136.509 37.7362C135.094 37.7188 133.884 37.4324 132.879 36.877C131.9 36.2951 131.14 35.3802 130.597 34.1322L130.545 34.0104C130.016 32.741 129.743 31.1 129.727 29.0875L129.726 28.8916C129.726 26.8287 129.982 25.1629 130.494 23.8943L130.545 23.7728C131.074 22.5033 131.821 21.5797 132.785 21.002L132.879 20.9472C133.916 20.3466 135.172 20.0463 136.646 20.0463L136.784 20.0471C138.198 20.0653 139.394 20.3653 140.373 20.9472C141.41 21.5205 142.188 22.4623 142.707 23.7728C143.253 25.0559 143.526 26.7622 143.526 28.8916L143.525 29.0875C143.509 31.1 143.236 32.741 142.707 34.0104L142.658 34.1322C142.14 35.3802 141.378 36.2951 140.373 36.877C139.363 37.4503 138.121 37.737 136.646 37.737L136.647 37.2269C138.054 37.2269 139.204 36.9533 140.118 36.4348C141.039 35.9014 141.749 35.0454 142.233 33.8227L142.235 33.8184L142.236 33.8142C142.747 32.5884 143.016 30.9558 143.016 28.8915ZM148.991 28.8915C148.991 31.7528 148.52 34.1572 147.546 36.0785C146.598 38.004 145.182 39.4509 143.307 40.4031L143.305 40.4039L143.304 40.4046C141.468 41.3226 139.242 41.7688 136.647 41.7689C134.025 41.7689 131.772 41.3227 129.91 40.4059L129.906 40.4039L129.902 40.4016C128.111 39.4784 126.741 38.0918 125.796 36.2575L125.706 36.0787C124.76 34.158 124.302 31.7537 124.302 28.8915C124.302 26.0036 124.759 23.5975 125.707 21.7019C126.654 19.7799 128.055 18.3464 129.904 17.421L130.08 17.3337C131.909 16.4464 134.105 16.0144 136.647 16.0144C139.24 16.0144 141.465 16.4737 143.301 17.4182C145.178 18.3422 146.595 19.7752 147.544 21.6991C148.519 23.6213 148.991 26.0276 148.991 28.8915Z" fill="white"/>
<path d="M122.767 28.8916C122.767 26.0797 122.303 23.7591 121.375 21.93C120.474 20.1009 119.136 18.7495 117.362 17.8759C115.669 17.0031 113.605 16.5531 111.169 16.5258L110.932 16.5245C108.366 16.5245 106.196 16.9749 104.421 17.8759C102.674 18.7495 101.35 20.1009 100.449 21.93C99.548 23.7318 99.0976 26.0524 99.0976 28.8916L99.0989 29.1537C99.1262 31.8481 99.5762 34.0812 100.449 35.8532C101.35 37.6824 102.674 39.0474 104.421 39.9483C106.14 40.7946 108.231 41.231 110.693 41.2574L110.932 41.2587C113.392 41.2587 115.48 40.8488 117.197 40.029L117.362 39.9483C119.136 39.0474 120.474 37.6824 121.375 35.8532C122.274 34.0812 122.738 31.8481 122.766 29.1537L122.767 28.8916ZM117.302 28.8915C117.302 26.7982 117.032 25.1681 116.524 23.9725L116.521 23.9665L116.519 23.9605C116.035 22.7384 115.327 21.8993 114.412 21.3936L114.405 21.3898L114.398 21.3856C113.485 20.8424 112.338 20.5564 110.932 20.5564C109.527 20.5564 108.364 20.8422 107.42 21.3886L107.419 21.3898L107.417 21.3908C106.525 21.8966 105.814 22.7392 105.302 23.969L105.301 23.9707L105.3 23.9725C104.791 25.1681 104.522 26.7982 104.522 28.8915C104.522 30.9558 104.791 32.5884 105.302 33.8142L105.35 33.9285C105.858 35.0956 106.553 35.9174 107.419 36.4347C108.364 36.9544 109.528 37.2269 110.932 37.2269L110.932 37.737L110.795 37.7362C109.38 37.7188 108.17 37.4324 107.165 36.877C106.186 36.2951 105.426 35.3802 104.883 34.1322L104.831 34.0104C104.302 32.741 104.029 31.1 104.012 29.0875L104.012 28.8916C104.012 26.8287 104.268 25.1629 104.78 23.8943L104.831 23.7728C105.36 22.5033 106.106 21.5797 107.071 21.002L107.165 20.9472C108.202 20.3466 109.458 20.0463 110.932 20.0463L111.07 20.0471C112.484 20.0653 113.68 20.3653 114.659 20.9472C115.696 21.5205 116.474 22.4623 116.993 23.7728C117.539 25.0559 117.812 26.7622 117.812 28.8916L117.811 29.0875C117.795 31.1 117.522 32.741 116.993 34.0104L116.944 34.1322C116.425 35.3802 115.664 36.2951 114.659 36.877C113.649 37.4503 112.407 37.737 110.932 37.737L110.932 37.2269C112.342 37.2269 113.492 36.9528 114.407 36.4333C115.326 35.8998 116.035 35.0442 116.519 33.8227L116.52 33.8184L116.522 33.8142C117.033 32.5884 117.302 30.9558 117.302 28.8915ZM123.277 28.8915C123.277 31.7528 122.806 34.1572 121.832 36.0785C120.884 38.004 119.468 39.4509 117.592 40.4031L117.591 40.4039L117.59 40.4046C115.754 41.3226 113.528 41.7688 110.932 41.7689C108.31 41.7689 106.058 41.3227 104.196 40.4059L104.192 40.4039L104.187 40.4016C102.397 39.4784 101.027 38.0918 100.081 36.2575L99.9914 36.0787C99.0454 34.158 98.5875 31.7537 98.5875 28.8915C98.5875 26.0035 99.045 23.5975 99.9927 21.7019C100.94 19.7798 102.341 18.3463 104.19 17.421L104.366 17.3337C106.195 16.4464 108.39 16.0144 110.932 16.0144C113.526 16.0144 115.751 16.4737 117.587 17.4182C119.465 18.3431 120.883 19.7779 121.832 21.7046C122.806 23.6258 123.277 26.0303 123.277 28.8915Z" fill="white"/>
<path d="M96.8322 32.9867C96.8322 31.4305 96.5182 30.1747 95.8903 29.2192C95.2624 28.2364 94.3751 27.5129 93.2285 27.0488C92.2457 26.6413 91.0946 26.4128 89.775 26.3631C91.4995 26.2198 92.8994 25.6262 93.9746 24.5824L94.0885 24.4689C95.2522 23.2523 95.8521 21.5746 95.8885 19.4357L95.8903 19.2272C95.8903 17.5611 95.5444 16.2151 94.8527 15.1895L94.7847 15.0912C94.0475 14.0538 92.9965 13.303 91.6314 12.8389C90.3355 12.3893 88.7706 12.1575 86.9366 12.1435L86.7583 12.1428L86.7583 11.6327C88.7076 11.6327 90.3921 11.869 91.7987 12.357C93.2498 12.8509 94.3938 13.6603 95.2005 14.7958L95.2758 14.9045C96.0407 16.0387 96.4004 17.4939 96.4004 19.2273C96.4004 21.5579 95.7731 23.4457 94.4571 24.8215L94.4532 24.8255C93.8644 25.4277 93.1849 25.8959 92.4202 26.2349C92.7682 26.3307 93.1014 26.4442 93.4197 26.576C94.6581 27.0773 95.6318 27.8669 96.3202 28.9445C97.0168 30.0075 97.3423 31.3686 97.3423 32.9867C97.3423 34.754 96.9569 36.2863 96.1585 37.5578L96.157 37.56L96.1557 37.5623C95.3527 38.8113 94.1567 39.7463 92.602 40.3797C91.0486 41.0126 89.1492 41.3184 86.9221 41.3184H72.7754V11.6327H86.7583L86.7583 12.1428H73.2855V40.8083H86.9221L87.1259 40.8074C89.1526 40.7898 90.8674 40.5082 92.2703 39.9627L92.4095 39.9073C93.8376 39.3255 94.92 38.4874 95.6564 37.3931L95.7265 37.2865C96.4406 36.1493 96.8088 34.7686 96.8312 33.1446L96.8322 32.9867ZM91.1214 32.4953C91.1214 31.1266 90.7084 30.2433 89.9801 29.7137L89.976 29.7107L89.972 29.7077C89.2016 29.1241 87.9431 28.7874 86.103 28.7874H78.8326V36.4488H86.0622L86.0622 36.9589L78.3224 36.9589V28.2773L86.1031 28.2773C87.9868 28.2773 89.3792 28.6186 90.2801 29.3011C91.181 29.9563 91.6314 31.021 91.6314 32.4953L91.6301 32.6449C91.6029 34.1772 91.1528 35.2739 90.2801 35.9351L90.1966 35.9981C89.3464 36.618 88.0283 36.9379 86.2423 36.9579L86.0622 36.9589L86.0622 36.4488C87.9629 36.4488 89.2278 36.1099 89.966 35.5332L89.972 35.5285C90.6977 34.9788 91.1214 34.018 91.1214 32.4953ZM90.2204 19.9234C90.2204 18.6025 89.8717 17.7772 89.2915 17.3033L89.2347 17.2584C88.5781 16.7603 87.4341 16.4612 85.6936 16.4612H78.8326V23.9997H85.6527L85.6526 24.5099L78.3224 24.5098V15.9511L85.6936 15.9512C87.4681 15.9512 88.7513 16.2515 89.543 16.8521C90.3347 17.4527 90.7305 18.4765 90.7305 19.9234L90.7293 20.0682C90.7037 21.5517 90.2809 22.6637 89.4611 23.4042C88.6412 24.1183 87.4242 24.4865 85.8101 24.5088L85.6526 24.5099L85.6527 23.9997C87.2808 23.9997 88.4072 23.644 89.1235 23.0215C89.8251 22.3851 90.2204 21.3869 90.2204 19.9234Z" fill="white"/>
<path d="M180.119 41.3975C177.307 41.3975 175.027 40.9471 173.28 40.0462C171.533 39.1179 170.25 37.7666 169.431 35.992C168.639 34.1902 168.243 31.9379 168.243 29.2352C168.243 25.0855 169.212 21.9596 171.151 19.8575C173.089 17.728 176.038 16.6633 179.996 16.6633C182.617 16.6633 184.76 17.1138 186.425 18.0147C188.091 18.9156 189.319 20.1851 190.111 21.8231C190.903 23.4611 191.299 25.4541 191.299 27.8019V29.7266H171.806V26.3686H187.941L186.671 28.0067C186.644 26.2594 186.398 24.8261 185.934 23.7068C185.497 22.5602 184.787 21.7002 183.805 21.1269C182.849 20.5536 181.566 20.267 179.955 20.267C177.607 20.267 175.833 20.9222 174.632 22.2326C173.458 23.5157 172.871 25.5087 172.871 28.2114V29.399C172.871 31.4738 173.116 33.1255 173.608 34.354C174.127 35.5825 174.905 36.4834 175.942 37.0568C177.007 37.6028 178.399 37.8758 180.119 37.8758C181.566 37.8758 182.74 37.6847 183.641 37.3025C184.569 36.893 185.265 36.2923 185.729 35.5006C186.193 34.7089 186.521 33.6988 186.712 32.4703H191.176C190.903 34.5724 190.302 36.2923 189.374 37.6301C188.473 38.9405 187.258 39.896 185.729 40.4966C184.2 41.0972 182.33 41.3975 180.119 41.3975Z" fill="white"/>
<path d="M191.299 27.8019C191.299 25.5275 190.927 23.5861 190.184 21.9777L190.111 21.8231C189.344 20.2363 188.167 18.9952 186.58 18.1001L186.425 18.0147C184.812 17.1419 182.75 16.6919 180.24 16.6646L179.996 16.6633C176.038 16.6633 173.089 17.728 171.151 19.8575L171.061 19.9567C169.182 22.0575 168.243 25.1504 168.243 29.2352L168.244 29.4872C168.268 32.0782 168.664 34.2465 169.431 35.992C170.25 37.7666 171.533 39.1179 173.28 40.0462C174.973 40.9189 177.165 41.369 179.857 41.3962L180.119 41.3975C182.261 41.3975 184.083 41.1157 185.585 40.552L185.729 40.4966C187.258 39.896 188.473 38.9405 189.374 37.6301C190.302 36.2923 190.903 34.5724 191.176 32.4703H186.712C186.521 33.6988 186.193 34.7089 185.729 35.5006L185.685 35.5744C185.221 36.3298 184.54 36.9058 183.641 37.3025C182.74 37.6847 181.566 37.8758 180.119 37.8758L180.119 37.3657C181.525 37.3657 182.622 37.1793 183.437 36.8347C184.277 36.4637 184.885 35.9315 185.289 35.2426L185.367 35.1049C185.75 34.4032 186.035 33.504 186.208 32.3919L186.275 31.9601H191.756L191.681 32.536C191.401 34.6954 190.78 36.4989 189.793 37.9208C188.863 39.2735 187.616 40.271 186.067 40.9105L185.916 40.9713C184.311 41.6018 182.373 41.9077 180.119 41.9077C177.258 41.9077 174.89 41.4503 173.046 40.4996L173.044 40.4981L173.041 40.4966C171.197 39.5168 169.834 38.083 168.968 36.2059L168.964 36.1972C168.135 34.3114 167.733 31.9837 167.733 29.2351C167.733 25.0146 168.718 21.743 170.776 19.5117C172.843 17.2425 175.951 16.1532 179.996 16.1532C182.671 16.1532 184.905 16.6122 186.668 17.566L186.831 17.6563C188.505 18.6003 189.756 19.9169 190.57 21.6011L190.647 21.7639C191.429 23.4554 191.809 25.4739 191.809 27.8019V30.2367H173.395C173.454 31.8761 173.688 33.1777 174.079 34.1595C174.558 35.2914 175.261 36.0953 176.181 36.606C177.149 37.1004 178.451 37.3657 180.119 37.3657L180.119 37.8758L179.959 37.875C178.312 37.8585 176.973 37.5857 175.942 37.0568C174.905 36.4834 174.127 35.5825 173.608 34.354C173.143 33.1909 172.898 31.6484 172.873 29.7266L191.299 29.7266V27.8019ZM180.105 20.2678C181.646 20.2851 182.879 20.5715 183.805 21.1269C184.787 21.7002 185.497 22.5602 185.934 23.7068C186.244 24.4541 186.456 25.3414 186.571 26.3686H172.975C173.191 24.5829 173.743 23.2042 174.632 22.2326C175.833 20.9222 177.607 20.267 179.955 20.267L180.105 20.2678ZM179.955 20.777C177.702 20.777 176.084 21.403 175.008 22.5768C174.303 23.3476 173.812 24.4308 173.565 25.8585H185.988C185.87 25.111 185.694 24.46 185.463 23.9023L185.46 23.8953L185.457 23.8885C185.058 22.8416 184.422 22.0774 183.548 21.5676L183.545 21.5659L183.542 21.5643C182.694 21.0552 181.512 20.777 179.955 20.777Z" fill="white"/>
<path d="M218.699 10.202H223.49V41.3245H218.699V10.202Z" fill="white"/>
<path d="M223.49 10.202H218.699V41.3245H223.49V10.202ZM224 41.8346H218.189V9.69189H224V41.8346Z" fill="white"/>
<path d="M150.685 16.2029H157.184V25.1917C157.348 24.1322 157.784 22.8907 158.49 21.467C159.197 20.0434 160.162 18.8019 161.386 17.7424C162.611 16.6829 164.035 16.1532 165.66 16.1532H167.179V22.6589H164.353C161.904 22.6589 160.091 23.7846 158.914 26.0359C157.76 28.2873 157.184 31.4822 157.184 35.6207V41.8285H150.685V16.2029Z" fill="white"/>
</svg>
